<svg width="360" height="276" viewBox="0 0 360 276" fill="none" xmlns="http://www.w3.org/2000/svg">
<path d="M386.5 213C386.5 251.709 363.785 287.023 326.511 312.766C289.248 338.502 237.633 354.5 180.5 354.5C123.367 354.5 71.7522 338.502 34.489 312.766C-2.78451 287.023 -25.5 251.709 -25.5 213C-25.5 174.291 -2.78451 138.977 34.489 113.234C71.7522 87.4979 123.367 71.5 180.5 71.5C237.633 71.5 289.248 87.4979 326.511 113.234C363.785 138.977 386.5 174.291 386.5 213Z" fill="#A4752C" stroke="#91631B" stroke-width="5"/>
<ellipse cx="190.829" cy="90.0955" rx="18.9668" ry="18.2822" fill="#91631B"/>
<ellipse cx="161.38" cy="87.7517" rx="14.4747" ry="14.0632" fill="#91631B"/>
<ellipse cx="121.949" cy="87.283" rx="28.9494" ry="26.7201" fill="#91631B"/>
<ellipse cx="28.7704" cy="26.9061" rx="28.7704" ry="26.9061" transform="matrix(0.952185 0.305523 -0.341848 0.939755 217.211 54)" fill="#91631B"/>
<path d="M82 157.216C82 165.501 77.0604 169.216 68.5 169.216C64 165.716 63 170.284 63 162C63 153.716 67.9396 150 76.5 150C79.5 154 82 148.932 82 157.216Z" fill="#5B3D29"/>
<path d="M248 138.286C248 144.992 244.048 148 237.2 148C232.5 148 230 147.421 230 140.714C230 134.008 233.952 131 240.8 131C243.2 134.238 248 131.579 248 138.286Z" fill="#5B3D29"/>
<path d="M135.034 124.551C130.584 129.568 125.631 129.196 120.508 124.651C119.696 120.142 114.005 118.872 118.456 113.855C124 115 133 112 133 112C132.647 116.015 139.484 119.534 135.034 124.551Z" fill="#5B3D29"/>
<path d="M243 221.286C243 227.992 239.048 231 232.2 231C228.6 228.166 225 230.421 225 223.714C229.5 221.286 228.952 214 235.8 214C238.2 217.238 243 214.579 243 221.286Z" fill="#5B3D29"/>
<path d="M326 190.286C326 196.992 322.048 200 315.2 200C311.6 197.166 308 199.421 308 192.714C308 186.008 311.952 183 318.8 183C323.5 179.5 326 183.579 326 190.286Z" fill="#5B3D29"/>
<path d="M54 239.567C54 246.273 50.0483 249.281 43.2 249.281C39.6 246.448 36 248.702 36 241.996C36 235.289 39.9517 232.281 46.8 232.281C48.5 237 54 232.861 54 239.567Z" fill="#5B3D29"/>
<path d="M147 208.214C147 214.526 146.668 215.357 140.2 215.357C137 214 130 216.812 130 210.5C130 204.188 133.732 201.357 140.2 201.357C142.467 204.405 147 201.902 147 208.214Z" fill="#5B3D29"/>
<path d="M188 272.857C188 279.169 187.668 280 181.2 280C178 278.643 171 281.455 171 275.143C171 268.831 174.732 266 181.2 266C183.467 269.048 188 266.545 188 272.857Z" fill="#5B3D29"/>
<path d="M173 151.857C173 155.408 171.024 157 167.6 157C165.8 155.5 164 156.693 164 153.143C164 149.592 165.976 148 169.4 148C170.6 149.714 173 148.307 173 151.857Z" fill="#5B3D29"/>
<path d="M312 257.857C312 261.408 310.024 263 306.6 263C304.8 261.5 303 262.693 303 259.143C306 257 304.976 254 308.4 254C309.6 255.714 312 254.307 312 257.857Z" fill="#5B3D29"/>
<ellipse cx="191" cy="79.5" rx="19" ry="19.5" fill="#E0CBB4"/>
<path d="M176 77C176 85.2843 169.508 92 161.5 92C153.492 92 147 85.2843 147 77C147 68.7157 153.492 62 161.5 62C169.508 62 178.5 67.5 176 77Z" fill="#E0CBB4"/>
<ellipse cx="122" cy="76.5" rx="29" ry="28.5" fill="#E0CBB4"/>
<ellipse cx="235.657" cy="77.345" rx="29" ry="28.5" transform="rotate(18.8623 235.657 77.345)" fill="#E0CBB4"/>
<path d="M64.8422 54.5666C64.4391 50.904 68.783 48.6906 71.5093 51.1696L74.9587 54.3061C77.1235 56.2746 76.5115 59.8252 73.8125 60.9552L69.9961 62.5532C66.9955 63.8095 63.8298 61.1492 64.5507 57.9771L64.851 56.6557C64.9496 56.2216 64.9751 55.7741 64.9264 55.3316L64.8422 54.5666Z" fill="#7F5B22" fill-opacity="0.9"/>
<path d="M229.993 10.9928C230.936 8.08561 234.658 7.26689 236.734 9.51022L239.263 12.2436C239.421 12.4142 239.593 12.5707 239.778 12.7114L242.498 14.7789C244.95 16.6432 244.463 20.4632 241.622 21.6529L235.271 24.3118C233.106 25.2186 230.628 24.0738 229.915 21.8368L228.601 17.7133C228.347 16.9165 228.349 16.0602 228.607 15.2647L229.993 10.9928Z" fill="#7F5B22"/>
<path d="M134.07 20.8229C133.721 17.5375 137.608 15.5531 140.065 17.7625L143.479 20.8335C144.723 21.9521 143.938 24.0154 142.265 24.0238C141.915 24.0256 141.572 24.1277 141.279 24.3182L138.943 25.8323C136.51 27.4099 133.394 25.2189 134.056 22.3952C134.138 22.0433 134.161 21.68 134.123 21.3205L134.07 20.8229Z" fill="#7F5B22" fill-opacity="0.9"/>
<path d="M189.481 52.8254C189.231 50.2002 192.517 48.8226 194.214 50.8416L195.809 52.7398C196.107 53.0948 196.271 53.5438 196.271 54.0075C196.271 54.68 195.928 55.3061 195.361 55.6682L193.606 56.7898C191.479 58.1489 188.79 56.1889 189.41 53.7424C189.486 53.4434 189.51 53.1325 189.481 52.8254Z" fill="#7F5B22" fill-opacity="0.9"/>
<path d="M280.033 51.9103C280.043 48.9851 283.806 47.8018 285.488 50.1951L286.205 51.2155C286.45 51.5651 286.768 51.8582 287.136 52.0752L288.86 53.091C290.988 54.3449 290.774 57.489 288.496 58.4429L284.173 60.2525C282.193 61.0818 280.008 59.6226 280.015 57.4755L280.033 51.9103Z" fill="#7F5B22" fill-opacity="0.9"/>
<path d="M234.701 66.6435C234.444 65.1017 236.441 64.2651 237.36 65.5289L238.388 66.9413C238.547 67.1595 238.643 67.4168 238.667 67.6857C238.714 68.2109 238.48 68.7216 238.051 69.0286L237.817 69.1963C236.405 70.2076 234.465 69.0554 234.677 67.3316L234.709 67.0675C234.727 66.9265 234.724 66.7837 234.701 66.6435Z" fill="#7F5B22" fill-opacity="0.9"/>
<path d="M117.481 65.9507C117.231 63.3256 120.517 61.948 122.214 63.967L123.809 65.8651C124.107 66.2202 124.271 66.6691 124.271 67.1329C124.271 67.8054 123.928 68.4314 123.361 68.7935L121.606 69.9152C119.479 71.2742 116.79 69.3143 117.41 66.8678C117.486 66.5688 117.51 66.2579 117.481 65.9507Z" fill="#7F5B22" fill-opacity="0.9"/>
</svg>
