<svg width="22" height="22" viewBox="0 0 22 22" fill="none" xmlns="http://www.w3.org/2000/svg">
<g clip-path="url(#clip0_210_115)">
<path fill-rule="evenodd" clip-rule="evenodd" d="M1.91964 9.21429C1.91964 5.18557 5.18557 1.91964 9.21429 1.91964C13.243 1.91964 16.5089 5.18557 16.5089 9.21429C16.5089 13.243 13.243 16.5089 9.21429 16.5089C5.18557 16.5089 1.91964 13.243 1.91964 9.21429ZM9.21429 0C4.12537 0 0 4.12537 0 9.21429C0 14.3032 4.12537 18.4286 9.21429 18.4286C11.0642 18.4286 12.7868 17.8834 14.2302 16.9449L18.2231 20.9379C18.9727 21.6875 20.1882 21.6875 20.9379 20.9379C21.6875 20.1882 21.6875 18.9727 20.9379 18.2231L16.9449 14.2302C17.8834 12.7868 18.4286 11.0642 18.4286 9.21429C18.4286 4.12537 14.3032 0 9.21429 0Z" fill="black"/>
</g>
<defs>
<clipPath id="clip0_210_115">
<rect width="21.5" height="21.5" fill="white"/>
</clipPath>
</defs>
</svg>
