<svg width="24" height="24" viewBox="0 0 24 24" fill="none" xmlns="http://www.w3.org/2000/svg">
<g clip-path="url(#clip0_145_5)">
<path fill-rule="evenodd" clip-rule="evenodd" d="M11.1429 2.14286C6.1723 2.14286 2.14286 6.1723 2.14286 11.1429C2.14286 16.1134 6.1723 20.1429 11.1429 20.1429C16.1134 20.1429 20.1429 16.1134 20.1429 11.1429C20.1429 6.1723 16.1134 2.14286 11.1429 2.14286ZM0 11.1429C0 4.98883 4.98883 0 11.1429 0C17.297 0 22.2857 4.98883 22.2857 11.1429C22.2857 13.6792 21.4383 16.0175 20.0112 17.8903L23.5606 21.4397C24.1464 22.0255 24.1464 22.9752 23.5606 23.5611C22.9749 24.1469 22.0251 24.1469 21.4394 23.5611L17.8899 20.0115C16.0171 21.4385 13.6789 22.2857 11.1429 22.2857C4.98883 22.2857 0 17.297 0 11.1429ZM12.5374 5.84522C12.1975 4.32987 10.0508 4.34069 9.72422 5.85749L9.68709 6.02998C9.27446 7.94674 7.76597 9.40728 5.88417 9.74018C4.32432 10.0161 4.32434 12.2696 5.88417 12.5455C7.76597 12.8784 9.27446 14.339 9.68709 16.2557L9.72422 16.4282C10.0507 17.945 12.1975 17.9558 12.5374 16.4405L12.5825 16.2395C13.0107 14.3302 14.5208 12.8807 16.3992 12.5484C17.9621 12.2719 17.9621 10.0138 16.3992 9.73733C14.5208 9.40503 13.0107 7.95552 12.5825 6.04623L12.5374 5.84522Z" fill="black"/>
</g>
<defs>
<clipPath id="clip0_145_5">
<rect width="24" height="24" fill="white"/>
</clipPath>
</defs>
</svg>
