<svg width="24" height="24" viewBox="0 0 24 24" fill="none" xmlns="http://www.w3.org/2000/svg">
<path fill-rule="evenodd" clip-rule="evenodd" d="M10.4446 2.16814C11.364 1.46983 12.6361 1.46983 13.5554 2.16816L14.6869 3.02765C18.0108 5.55237 20.858 8.64899 23.0957 12.1724L23.4588 12.7439C24.1836 13.8853 23.3636 15.3772 22.0116 15.3772H20.8265C20.8951 16.9528 20.809 18.5332 20.5683 20.0954C20.3293 21.6478 18.9936 22.7937 17.4228 22.7937H14.1428V17.1427C14.1428 15.9592 13.1834 14.9999 12 14.9999C10.8165 14.9999 9.85712 15.9592 9.85712 17.1427V22.7937H6.57726C5.00658 22.7937 3.67074 21.6478 3.43168 20.0954C3.1911 18.5332 3.10501 16.9528 3.17358 15.3772H1.98824C0.636214 15.3772 -0.183707 13.8852 0.541134 12.7439L0.904186 12.1723C3.14183 8.64893 5.98924 5.55238 9.31297 3.02774L10.4446 2.16814Z" fill="black"/>
</svg>
