<svg width="24" height="21" viewBox="0 0 24 21" fill="none" xmlns="http://www.w3.org/2000/svg">
<path fill-rule="evenodd" clip-rule="evenodd" d="M10.3528 0.503041C11.3336 -0.167684 12.6665 -0.167682 13.6474 0.503058L14.785 1.281C18.1464 3.57977 21.0322 6.40341 23.3035 9.62296L23.6683 10.1403C24.1149 10.7733 24.0833 11.5352 23.7351 12.1057C23.3943 12.664 22.7714 13.021 22.0654 13.021H21.0926C21.1438 14.6122 21.054 16.5216 20.8188 17.8961C20.5419 19.5147 19.0452 20.5714 17.4519 20.5714H6.54819C4.9549 20.5714 3.45819 19.5147 3.18134 17.8961C2.94624 16.5216 2.85638 14.6122 2.90755 13.021H1.93454C1.22858 13.021 0.60559 12.664 0.264789 12.1057C-0.083453 11.5351 -0.114946 10.7732 0.331587 10.1403L0.696586 9.62285C2.96774 6.40337 5.85355 3.57979 9.21504 1.28109L10.3528 0.503041ZM12.4378 2.27187C12.1862 2.09985 11.8139 2.09985 11.5624 2.27187L10.4246 3.0499C7.26598 5.2099 4.56603 7.85506 2.44761 10.8581L2.43341 10.8782H4.04366C4.34477 10.8782 4.63198 11.0049 4.83497 11.2273C5.03798 11.4496 5.13804 11.7472 5.11065 12.047C4.96807 13.6084 5.03199 16.0059 5.29353 17.5349C5.36789 17.9697 5.8338 18.4286 6.54819 18.4286H8.71248V14.2887C8.71248 12.4732 10.1843 11.0014 11.9998 11.0014C13.8153 11.0014 15.2871 12.4732 15.2871 14.2887V18.4286H17.4519C18.1663 18.4286 18.6322 17.9697 18.7066 17.5349C18.9682 16.0059 19.0322 13.6084 18.8895 12.047C18.8621 11.7472 18.9622 11.4496 19.1652 11.2273C19.3682 11.0049 19.6553 10.8782 19.9565 10.8782H21.5666L21.5523 10.8582C19.434 7.85508 16.734 5.20987 13.5754 3.04982L12.4378 2.27187Z" fill="black"/>
</svg>
