<svg width="24" height="24" viewBox="0 0 24 24" fill="none" xmlns="http://www.w3.org/2000/svg">
<g clip-path="url(#clip0_145_8)">
<path fill-rule="evenodd" clip-rule="evenodd" d="M3.4286 0.642853C1.89009 0.642853 0.642883 1.89006 0.642883 3.42857V8.01504C0.642883 14.951 5.08117 21.1089 11.6612 23.3021C11.8811 23.3755 12.1189 23.3755 12.3388 23.3021C18.9189 21.1089 23.3572 14.951 23.3572 8.01504V3.42857C23.3572 1.89006 22.11 0.642853 20.5715 0.642853H3.4286ZM2.78574 3.42857C2.78574 3.07352 3.07355 2.78571 3.4286 2.78571H20.5715C20.9265 2.78571 21.2143 3.07352 21.2143 3.42857V8.01504C21.2143 11.0735 20.219 13.9575 18.4901 16.3035C16.8004 14.6997 14.5151 13.7143 12 13.7143C9.485 13.7143 7.1997 14.6997 5.50993 16.3035C3.78112 13.9575 2.78574 11.0735 2.78574 8.01504V3.42857ZM12 6C10.6982 6 9.64288 7.05533 9.64288 8.35714C9.64288 9.65895 10.6982 10.7143 12 10.7143C13.3018 10.7143 14.3572 9.65895 14.3572 8.35714C14.3572 7.05533 13.3018 6 12 6ZM7.50003 8.35714C7.50003 5.87185 9.51474 3.85714 12 3.85714C14.4853 3.85714 16.5 5.87185 16.5 8.35714C16.5 10.8424 14.4853 12.8571 12 12.8571C9.51474 12.8571 7.50003 10.8424 7.50003 8.35714Z" fill="black"/>
</g>
<defs>
<clipPath id="clip0_145_8">
<rect width="24" height="24" fill="white"/>
</clipPath>
</defs>
</svg>
