<svg width="23" height="23" viewBox="0 0 23 23" fill="none" xmlns="http://www.w3.org/2000/svg">
<g clip-path="url(#clip0_210_104)">
<path fill-rule="evenodd" clip-rule="evenodd" d="M4.47587 4.47587C2.93983 6.0119 2.05357 8.33757 2.05357 11.5C2.05357 14.6624 2.93983 16.9881 4.47587 18.5242C4.59369 18.642 4.71617 18.756 4.84332 18.8661C5.28343 17.7039 6.02281 16.6707 6.99527 15.8758C8.26656 14.8367 9.85798 14.2691 11.4999 14.2691C13.1418 14.2691 14.7332 14.8367 16.0045 15.8758C16.977 16.6707 17.7164 17.7041 18.1565 18.8662C18.2837 18.756 18.4062 18.642 18.5242 18.5242C20.0601 16.9881 20.9464 14.6624 20.9464 11.5C20.9464 8.33757 20.0601 6.0119 18.5242 4.47587C16.9881 2.93983 14.6624 2.05357 11.5 2.05357C8.33757 2.05357 6.0119 2.93983 4.47587 4.47587ZM11.5 23C14.052 23 16.2769 22.481 18.0787 21.4329C18.1744 21.3969 18.2602 21.3443 18.3336 21.2793C18.9318 20.9062 19.4805 20.472 19.9762 19.9762C22.0011 17.9513 23 15.0404 23 11.5C23 7.95958 22.0011 5.04863 19.9762 3.02378C17.9513 0.998923 15.0404 0 11.5 0C7.95958 0 5.04863 0.998923 3.02378 3.02378C0.998923 5.04863 0 7.95958 0 11.5C0 15.0404 0.998923 17.9513 3.02378 19.9762C5.04863 22.0011 7.95958 23 11.5 23ZM9.13438 8.85934C9.13438 7.96273 9.38338 7.40725 9.71569 7.07493C10.048 6.74261 10.6035 6.49362 11.5001 6.49362C12.3967 6.49362 12.9522 6.74261 13.2845 7.07493C13.6168 7.40725 13.8658 7.96273 13.8658 8.85934C13.8658 9.75593 13.6168 10.3114 13.2845 10.6437C12.9522 10.9761 12.3967 11.2251 11.5001 11.2251C10.6035 11.2251 10.048 10.9761 9.71569 10.6437C9.38338 10.3114 9.13438 9.75593 9.13438 8.85934ZM11.5001 4.44005C10.2255 4.44005 9.08474 4.80171 8.2636 5.62284C7.44247 6.44396 7.08081 7.58473 7.08081 8.85934C7.08081 10.1339 7.44247 11.2747 8.2636 12.0958C9.08474 12.917 10.2255 13.2786 11.5001 13.2786C12.7747 13.2786 13.9155 12.917 14.7366 12.0958C15.5577 11.2747 15.9194 10.1339 15.9194 8.85934C15.9194 7.58473 15.5577 6.44396 14.7366 5.62284C13.9155 4.80171 12.7747 4.44005 11.5001 4.44005Z" fill="black"/>
</g>
<defs>
<clipPath id="clip0_210_104">
<rect width="23" height="23" fill="white"/>
</clipPath>
</defs>
</svg>
